<svg xmlns="http://www.w3.org/2000/svg" viewBox="0 0 162.97 164.78"><defs><style>.cls-1{fill:#fff;}.cls-2{fill:#ff260a;}</style></defs><g id="Layer_1" data-name="Layer 1"><path class="cls-1" d="M506.87,334.39l-26-12.58a3.21,3.21,0,0,0-4.61,2.89v30.77a3.22,3.22,0,0,1-5.87,1.82l-17.24-25.2a3.22,3.22,0,0,0-5.45.23L433.13,358a3.22,3.22,0,0,1-6-1.29l-2.77-30.29a3.22,3.22,0,0,0-4.84-2.48l-24.75,14.64a3.21,3.21,0,0,1-4.55-4.12l12.72-27.2a3.22,3.22,0,0,0-2.92-4.58l-28.47.06a3.21,3.21,0,0,1-1.77-5.9l24.35-16a3.22,3.22,0,0,0-.1-5.44l-24.48-14.86a3.21,3.21,0,0,1,1.46-5.95l27-1.74a3.21,3.21,0,0,0,2.61-4.75l-14-25.42a3.22,3.22,0,0,1,4.16-4.47l26.36,12.15a3.22,3.22,0,0,0,4.56-2.86l.5-28.07a3.21,3.21,0,0,1,5.84-1.8l16.44,23.21a3.21,3.21,0,0,0,5.41-.26l13.83-24.12a3.21,3.21,0,0,1,6,1.21l3.41,27.73a3.21,3.21,0,0,0,4.73,2.43L503.06,214a3.21,3.21,0,0,1,4.44,4.21l-12.6,26.4a3.22,3.22,0,0,0,2.88,4.6l28.72.16a3.21,3.21,0,0,1,1.79,5.87l-23.87,16.31a3.21,3.21,0,0,0,.2,5.44l24.73,14.26a3.21,3.21,0,0,1-1.45,6l-29.4,1.35a3.21,3.21,0,0,0-2.64,4.81l15.19,26.45A3.21,3.21,0,0,1,506.87,334.39Z" transform="translate(-368 -194.88)"/><path class="cls-1" d="M519.23,261.71c2.13,5.79,1.91,10.61,5,12.67s5.87,4.9,4.59,6.32-14.5,6.09-14.5,6.09-27.88-4.23-28.12-9.93S519.23,261.71,519.23,261.71Z" transform="translate(-368 -194.88)"/><polygon points="135.43 131.97 103.15 116.37 103.13 153.7 82.15 123.03 64.3 154.62 60.94 117.83 30.21 136 45.76 102.75 10.01 102.83 40.35 82.89 10.05 64.5 44.09 62.31 27.04 31.33 59.07 46.09 59.69 11.57 79.86 40.06 96.91 10.33 101.07 44.22 131.84 27.38 116.45 59.61 152.01 59.81 122.48 79.98 153.69 97.98 116.87 99.67 135.43 131.97"/><path class="cls-2" d="M397.51,262.66c-.21-.4,28.07-4.46,28.07-4.46a3.13,3.13,0,0,1,0,1.14c-.11.58-1.72.58-1.72,1.84,1.11,8.05,2.29,18.35,4.24,23.94.76,1.69,2.29,1,2.49,2.57-3.1.55-6,.62-10.39,1.14-.09-.25-.23-.7.74-1.83.56-4.85-3.07-23.07-3.15-23.32s-10.37,1.24-10.37,1.24S410.65,286,411,286.59s3.11,1.74,2.64,2.83c-3.65.64-6.72.71-10.44,1.11a.66.66,0,0,1-.06-1.12c.5-.41.85-.34,1.09-1,0-1.82-3.19-23-3.43-23.55S398.24,264.06,397.51,262.66Z" transform="translate(-368 -194.88)"/><path class="cls-2" d="M449.52,275.53c-.71-2.58-7.65-19.66-8.09-20h-7.3c3.56,1.87,3.47,3.73,3.47,3.73s-7.38,11.21-4.62,15.93c5.25,9,10.23-2.23,10.23-2.23l1.87,4.82h6.31A8.93,8.93,0,0,1,449.52,275.53Z" transform="translate(-368 -194.88)"/><path class="cls-2" d="M451.63,263.85c3.69-.07,5.59-.32,9.49-.34a.73.73,0,0,1-.65.75,2.15,2.15,0,0,0-1,.68c0,.86,0,4.82.07,6.88a66,66,0,0,0,9.35-.21c-.21-1.82-.25-5.71-.43-7.75-.77-.86-2.23-.39-2.48-1.67,2.66,0,8-.19,9.87-.22.07,1.14-1.56.87-2.17,1.5-.1,4.21.65,12.4.46,19.41.62,1.59,2.53,1.06,2.17,2.24h-9c0-1,.84-.68,1.55-1.55.85-2,.18-4.23.21-8.84-2.26-.06-6.25.25-9.59.31.2,3.58.22,6.63.38,9.89,1.08.51,2,1.23,1.85,1.76-4.23.1-6.3.07-9.3.1-.18-.7.39-1.29,1.81-2-.16-7.65-.32-17.49-.65-19.57C452.45,264,451.49,264.58,451.63,263.85Z" transform="translate(-368 -194.88)"/><path class="cls-2" d="M476.6,254.08c2.51,0,5.24.08,8.4-.07.18,1-.81.64-1.33,1.54.09,3.11,0,5.82.23,7.84,2.27.53,3-.82,3.28-1.68,2.24-7.7,6.94-11.46,9.31-7.48.82,1.39.9,4.57-.71,6-2.24-1.64-.93-3.1-2.51-3.81-.86,3.85-3.71,5-4.43,7.15,5.58,5.65,4,10.86,9.44,15.32-2.44-.06-3.5.17-5.48,0-3.4-2.38-3.4-12.94-8.91-12.91.17,2.34.19,6.24.56,8.79.39.74,1.88,1.26,1.75,2.14-3.56,0-5.83.3-8.78.22-.09-1.23.81-1,1.64-2.14-.12-9-.61-15.42-.73-19.25C477.27,254.5,476.58,255.52,476.6,254.08Z" transform="translate(-368 -194.88)"/><path class="cls-2" d="M496.07,265.3c3.4-1.32,5-1.88,8.07-3,.5,1-.7,1.15-.85,3.11.84,2.86,2.18,6,3.28,8.94,1.14-3.71,2.67-6.26,4.36-7.14,0-.48-1.69-3.93-2-4.76-.75-1.17-1.44-.28-1.89-1.27,1.65-.69,5-1.58,7.2-2.42.45,1-.69,1.31-.49,2.31,1.31,4.86,5.1,13.6,6.28,17.08,1.29,1.06,1.91.06,2.37,1.05-1.52.56-5.34,1.9-8.08,3-.41-.52.63-.88,1-2.2,0-1.86-2.69-7.89-3.47-10.8a20.17,20.17,0,0,0-4.14,8.39,40.57,40.57,0,0,0,1.54,4.3c.92.63,1.56.14,2,1-2,.57-4.89,1.75-7.36,2.47-.42-1,.75-1.3.62-2.76-1.14-3.77-4.17-11.48-5.79-16C497.21,265.58,496.66,266.44,496.07,265.3Z" transform="translate(-368 -194.88)"/><path class="cls-2" d="M430,291.39c5.05,1.07,8.84,1.67,11.05,2.1-.3.88-1.28.84-1.79,1.77a44.33,44.33,0,0,0,1.84,7.54c7-12.09,11.57-8.11,12.44-6.35s-1.17,4.74-2.57,5.54c-1.64-1.36-.61-3.33-1.9-3.76a40.71,40.71,0,0,0-6.94,8.83c.86,3.49,4.09,12.37,5.11,17.43-1.94-.37-6.62-.91-9.31-1.29.18-.78.91-.75,2-1.88-.07-3.37-1.77-7-2.36-9.1-1.11.67-5.06,6.19-4.9,10.39-1.67-.32-6.73-1.51-8.07-1.78,6.88-4.09,5.93-8.23,11.73-12.28A75.43,75.43,0,0,0,430,291.39Z" transform="translate(-368 -194.88)"/><path class="cls-2" d="M473.36,295.69c3.4-.24,5-.31,8-.45.21,1-.92.8-1.54,2.46.06,2.66.49,5.73.76,8.52,1.94-2.89,4-4.68,5.71-5,.11-.41-.57-3.82-.62-4.6-.4-1.21-1.24-.62-1.4-1.59,1.66-.16,4.94,0,7.1-.2.16,1-.95.94-1,1.86,0,4.5,1.25,13,1.45,16.3.91,1.25,1.72.55,1.88,1.52-1.51.08-5.29.24-8.05.51-.24-.55.79-.59,1.47-1.63.46-1.6-.48-7.47-.47-10.18a17.91,17.91,0,0,0-5.81,6.14,34.69,34.69,0,0,0,.33,4.09c.68.78,1.37.52,1.53,1.37-1.92,0-4.85.24-7.26.22-.14-.94,1-.93,1.24-2.22-.1-3.53-.93-10.95-1.27-15.27C474.33,296.23,473.62,296.83,473.36,295.69Z" transform="translate(-368 -194.88)"/><path class="cls-2" d="M476.53,289.44a32.24,32.24,0,0,1,3.82-.37c.3.81.33,3.28,2.18,3.35s2.15-1.27,1.79-3.67a23.46,23.46,0,0,1,3.67,0C489.3,293.33,479.86,298,476.53,289.44Z" transform="translate(-368 -194.88)"/><path class="cls-2" d="M464.08,298.06c-3.43.56-12.4,6.26-12,14.08s8.53,9.66,8.53,9.66,10.06-3.1,11.15-12.3C471.52,301.49,467.33,299.32,464.08,298.06Z" transform="translate(-368 -194.88)"/><path d="M464.22,301.16c1.31,2.28,4.63,7.25-3.62,17.3C455.07,314.55,460.7,302.83,464.22,301.16Z" transform="translate(-368 -194.88)"/><path d="M439,261.71s-1.77,6.37-2.3,8.07.72,3.54,1.77,3.74S442.4,270,442.4,270Z" transform="translate(-368 -194.88)"/></g></svg>